<?xml version="1.0" encoding="UTF-8"?>
<svg width="95px" height="95px" viewBox="0 0 95 95" version="1.1" xmlns="http://www.w3.org/2000/svg" xmlns:xlink="http://www.w3.org/1999/xlink">
    <title>Group 11</title>
    <g id="Monstera" stroke="none" stroke-width="1" fill="none" fill-rule="evenodd">
        <g id="Group-11" transform="translate(0.269113, 0.500000)">
            <g id="Group" fill="#E6B0A4">
                <circle id="Oval" cx="46.9520897" cy="46.9520897" r="46.9520897"></circle>
            </g>
            <path d="M52.4647481,29.2831546 C44.5672601,30.3390186 38.0054358,32.3195093 32.7772666,35.2246268 C27.069062,38.3942073 23.2006586,42.8821266 21.1760737,48.6923614 C19.7339587,52.7607189 19.3342638,56.5109253 19.9749807,59.9429805 C20.3465563,61.7922339 21.3608573,63.2179486 23.0158751,64.2201246 C23.8674862,64.7490509 24.6688844,65.0910633 25.4160526,65.2501389 C25.0966985,66.4650785 25.2553713,67.7058679 25.8960882,68.9744955 C27.069062,71.5614618 29.8428236,72.9891649 34.2193817,73.2516396 C49.7432079,71.7742253 61.5874313,62.5060855 69.7500435,45.4452315 C73.8574604,36.8869664 76.3922085,28.4897652 77.350271,20.2516396 C75.484359,23.4729197 72.2305618,25.7974113 67.5888795,27.223126 C67.3217468,27.3285136 62.2783611,28.014527 52.4647481,29.2831546 Z" id="Path" fill="#588068"></path>
        </g>
    </g>
</svg>