<?xml version="1.0" encoding="UTF-8"?>
<svg width="341px" height="56px" viewBox="0 0 341 56" version="1.1" xmlns="http://www.w3.org/2000/svg" xmlns:xlink="http://www.w3.org/1999/xlink">
    <title>Group 31</title>
    <defs>
        <polygon id="path-1" points="0 0 18 0 18 31 0 31"></polygon>
        <polygon id="path-3" points="0 0 18 0 18 31 0 31"></polygon>
        <polygon id="path-5" points="0 0 22 0 22 23 0 23"></polygon>
        <polygon id="path-7" points="0 0 69 0 69 48 0 48"></polygon>
    </defs>
    <g id="Plant-Match---Homepage" stroke="none" stroke-width="1" fill="none" fill-rule="evenodd">
        <g transform="translate(-225.000000, -21.000000)" id="Group-31">
            <g transform="translate(225.000000, 21.000000)">
                <path d="M11.8380046,25.8415494 L11.8380046,42.4485427 L12.7940501,42.4485427 C14.6153147,42.4485427 15.8744021,41.8439669 16.5730342,40.632722 C17.2712359,39.422733 17.6203367,37.4595365 17.6203367,34.7431323 L17.6203367,32.6174874 C17.6203367,30.1079117 17.2940501,28.351125 16.6414769,27.347546 C15.9884733,26.3439669 14.7973981,25.8415494 13.0673905,25.8415494 L11.8380046,25.8415494 Z M0,25 L13.3859288,25 C17.9690071,25 21.3838244,25.6422571 23.6308112,26.9267713 C25.8765066,28.2108668 27,30.506915 27,33.8128225 C27,37.4741903 25.6337287,39.9984198 22.9020471,41.3859296 C20.3524488,42.6553713 16.7852497,43.2900921 12.2021714,43.2900921 L11.8380046,43.2900921 L11.8380046,55.1584506 L17.5295102,55.1584506 L17.5295102,56 L0,56 L0,55.1584506 L2.95939353,55.1584506 L2.95939353,25.8415494 L0,25.8415494 L0,25 Z" id="Fill-1" fill="#1F3B2C"></path>
                <polygon id="Fill-3" fill="#1F3B2C" points="28 22 40.2094667 22 40.2094667 55.183976 43 55.183976 43 56 28.1992902 56 28.1992902 55.183976 30.9403543 55.183976 30.9403543 22.816024 28 22.816024"></polygon>
                <path d="M51.2392858,53.4498027 C51.4121957,53.9136344 51.7428245,54.1451118 52.2316188,54.1451118 C52.7195196,54.1451118 53.1765915,53.7509864 53.6023877,52.9627356 C54.0277371,52.1744849 54.239965,51.084612 54.239965,49.6935555 L54.239965,45.3809733 L53.9093362,45.3809733 C51.9554992,45.3809733 50.9792508,46.7882508 50.9792508,49.6010522 L50.9792508,50.3428321 C50.9792508,51.9504603 51.0654824,52.9859711 51.2392858,53.4498027 M52.8696429,44.6387549 L54.239965,44.6387549 L54.239965,41.0683911 C54.239965,38.1319597 54.0746506,36.1608943 53.7440219,35.1556335 C53.4129463,34.1516879 52.7753691,33.6488382 51.8299496,33.6488382 C51.262966,33.6488382 50.7504915,33.796142 50.2938664,34.0894345 C49.8367945,34.3836037 49.6089288,34.7851819 49.6089288,35.295046 C49.6089288,35.8053485 49.7032026,36.3235423 49.8921972,36.8487505 L51.0735247,36.8487505 C51.3255174,37.4975888 51.4519605,38.2792635 51.4519605,39.1907058 C51.4519605,40.1025866 51.05744,40.8912758 50.270633,41.5554581 C49.4824856,42.2205173 48.4901526,42.5523893 47.2927405,42.5523893 C44.5829253,42.5523893 43.2286879,41.270057 43.2286879,38.7032004 C43.2286879,34.9009206 46.5206777,33 53.1059978,33 C56.8550595,33 59.4460271,33.6256028 60.8802409,34.8781236 C62.3135611,36.1297676 63.030668,38.4252521 63.030668,41.7641385 L63.030668,51.1771153 C63.030668,52.7851819 63.4868463,53.5887769 64.4009901,53.5887769 C65.4715123,53.5887769 66.1023877,51.9969312 66.2913822,48.812363 L67,48.8588338 C66.8740036,51.5795704 66.3539336,53.4498027 65.4406834,54.4699693 C64.5265397,55.4896975 63.030668,56 60.9508346,56 C57.1700504,56 54.9963899,54.8566418 54.4294063,52.5686103 C54.019248,53.7439719 53.404904,54.6093819 52.5859277,55.1652784 C51.7665046,55.7220517 50.5695393,56 48.9945848,56 C44.3313793,56 42,54.130206 42,50.3893029 C42,48.1946515 42.8900168,46.6874178 44.6700504,45.8680403 C46.4496372,45.0491013 49.1831326,44.6387549 52.8696429,44.6387549" id="Fill-5" fill="#1F3B2C"></path>
                <path d="M69,33.4733597 L79.8271826,33.4733597 L79.8271826,37.8271053 C80.3058518,36.376155 81.0402076,35.2088626 82.0285512,34.3252281 C83.01647,33.4424884 84.5140632,33 86.5209061,33 C91.1631902,33 93.4843322,35.6347968 93.4843322,40.9030482 L93.4843322,55.1476842 L96,55.1476842 L96,56 L83.2861727,56 L83.2861727,55.1476842 L85.1282209,55.1476842 L85.1282209,39.7675219 C85.1282209,37.8745307 85.0080227,36.6522069 84.7689004,36.0996557 C84.5289287,35.5484467 84.0948561,35.2719474 83.4662577,35.2719474 C82.5072204,35.2719474 81.6611609,35.934114 80.9276546,37.2593421 C80.1932987,38.5845702 79.8271826,40.1934561 79.8271826,42.0864474 L79.8271826,55.1476842 L81.7588485,55.1476842 L81.7588485,56 L69,56 L69,55.1476842 L71.4710713,55.1476842 L71.4710713,34.3252281 L69,34.3252281 L69,33.4733597 Z" id="Fill-7" fill="#1F3B2C"></path>
                <g id="Group-11" transform="translate(96.000000, 25.000000)">
                    <mask id="mask-2" fill="white">
                        <use xlink:href="#path-1"></use>
                    </mask>
                    <g id="Clip-10"></g>
                    <path d="M2.54474311,23.824428 L2.54474311,9.05171304 L0,9.05171304 L0,8.20706384 L2.54474311,8.20706384 L2.54474311,2.15751338 L11.1514607,0 L11.1514607,8.20706384 L17.1670636,8.20706384 L17.1670636,9.05171304 L11.1514607,9.05171304 L11.1514607,24.8561858 C11.1514607,26.3264518 11.2975745,27.4047651 11.5911146,28.0924559 C11.8837797,28.78059 12.4936081,29.1237703 13.4188499,29.1237703 C14.3445292,29.1237703 15.1542799,28.6551119 15.8481019,27.7169084 C16.5423613,26.7791483 16.9973266,25.4973211 17.2134351,23.8709834 L18,23.9649811 C17.7528314,26.1224945 17.0743207,27.8344056 15.9640305,29.1002709 C14.8533029,30.367023 13.0176931,31.0001774 10.4572012,31.0001774 C7.89670928,31.0001774 5.93773392,30.4840767 4.58071258,29.4523189 C3.22281631,28.4205611 2.54474311,26.5445974 2.54474311,23.824428" id="Fill-9" fill="#1F3B2C" mask="url(#mask-2)"></path>
                </g>
                <polygon id="Fill-12" fill="#1F3B2C" points="172.494716 25 185 25 185 25.8415494 182.423846 25.8415494 182.423846 55.1584506 185 55.1584506 185 56 170.714699 56 170.714699 55.1584506 173.291296 55.1584506 173.291296 27.480268 173.103553 27.480268 166.078242 56 160.223669 56 151.980685 27.3471273 151.793384 27.3471273 151.793384 55.1584506 154.369096 55.1584506 154.369096 56 148 56 148 55.1584506 150.575711 55.1584506 150.575711 25.8415494 148 25.8415494 148 25 160.645205 25 166.874822 47.8072445"></polygon>
                <path d="M195.239121,53.4498027 C195.412028,53.9136344 195.743097,54.1451118 196.231883,54.1451118 C196.719775,54.1451118 197.176839,53.7509864 197.60218,52.9627356 C198.027522,52.1744849 198.240193,51.084612 198.240193,49.6935555 L198.240193,45.3809733 L197.90957,45.3809733 C195.955768,45.3809733 194.979537,46.7882508 194.979537,49.6010522 L194.979537,50.3428321 C194.979537,51.9504603 195.065767,52.9859711 195.239121,53.4498027 M196.869449,44.6387549 L198.240193,44.6387549 L198.240193,41.0683911 C198.240193,38.1319597 198.074882,36.1608943 197.743812,35.1556335 C197.413189,34.1516879 196.775176,33.6488382 195.829774,33.6488382 C195.2628,33.6488382 194.750335,33.796142 194.294165,34.0894345 C193.837101,34.3836037 193.60924,34.7851819 193.60924,35.295046 C193.60924,35.8053485 193.703065,36.3235423 193.892056,36.8487505 L195.073809,36.8487505 C195.325351,37.4975888 195.452238,38.2792635 195.452238,39.1907058 C195.452238,40.1025866 195.057725,40.8912758 194.270485,41.5554581 C193.482352,42.2205173 192.490483,42.5523893 191.293093,42.5523893 C188.583326,42.5523893 187.228666,41.270057 187.228666,38.7032004 C187.228666,34.9009206 190.520597,33 197.106246,33 C200.854794,33 203.445715,33.6256028 204.879903,34.8781236 C206.313198,36.1297676 207.030292,38.4252521 207.030292,41.7641385 L207.030292,51.1771153 C207.030292,52.7851819 207.486462,53.5887769 208.40059,53.5887769 C209.471093,53.5887769 210.102404,51.9969312 210.290948,48.812363 L211,48.8588338 C210.873559,51.5795704 210.353945,53.4498027 209.440264,54.4699693 C208.526137,55.4896975 207.030292,56 204.950943,56 C201.170226,56 198.996158,54.8566418 198.429184,52.5686103 C198.01948,53.7439719 197.405147,54.6093819 196.586185,55.1652784 C195.766777,55.7220517 194.569386,56 192.99446,56 C188.331338,56 186,54.130206 186,50.3893029 C186,48.1946515 186.890001,46.6874178 188.670449,45.8680403 C190.450004,45.0491013 193.183451,44.6387549 196.869449,44.6387549" id="Fill-14" fill="#1F3B2C"></path>
                <g id="Group-18" transform="translate(210.000000, 25.000000)">
                    <mask id="mask-4" fill="white">
                        <use xlink:href="#path-3"></use>
                    </mask>
                    <g id="Clip-17"></g>
                    <path d="M2.54480496,23.824428 L2.54480496,9.05171304 L0,9.05171304 L0,8.20706384 L2.54480496,8.20706384 L2.54480496,2.15751338 L11.1517317,0 L11.1517317,8.20706384 L17.1670434,8.20706384 L17.1670434,9.05171304 L11.1517317,9.05171304 L11.1517317,24.8561858 C11.1517317,26.3264518 11.2978491,27.4047651 11.5913963,28.0924559 C11.8840685,28.78059 12.4934743,29.1237703 13.4187386,29.1237703 C14.3444404,29.1237703 15.1542107,28.6551119 15.8484871,27.7169084 C16.5423259,26.7791483 16.9973022,25.4973211 17.213416,23.8709834 L18,23.9649811 C17.7528254,26.1224945 17.0747357,27.8344056 15.963981,29.1002709 C14.8536639,30.367023 13.017572,31.0001774 10.4574553,31.0001774 C7.89646373,31.0001774 5.93787824,30.4840767 4.58038644,29.4523189 C3.22289464,28.4205611 2.54480496,26.5445974 2.54480496,23.824428" id="Fill-16" fill="#1F3B2C" mask="url(#mask-4)"></path>
                </g>
                <g id="Group-21" transform="translate(228.000000, 33.000000)">
                    <mask id="mask-6" fill="white">
                        <use xlink:href="#path-5"></use>
                    </mask>
                    <g id="Clip-20"></g>
                    <path d="M13.3556506,0.834712067 C11.9304602,0.834712067 10.910696,1.5764835 10.295899,3.06046478 C9.68018366,4.54444605 9.37301471,7.00167354 9.37301471,10.4334624 L9.37301471,12.844658 C9.37301471,15.9051228 9.72931232,18.100626 10.4414484,19.4294139 C11.1531253,20.7586403 12.4649066,21.4232535 14.3754148,21.4232535 C16.2854638,21.4232535 17.8066159,20.805549 18.9407075,19.5683865 C20.0734217,18.3325391 20.802087,16.9252777 21.1262444,15.3483558 L22,15.4412964 C21.3847438,18.100626 20.2520296,20.0168688 18.60048,21.1917787 C16.9167901,22.3973765 14.601774,23.0001754 11.6558906,23.0001754 C7.89915475,23.0001754 5.01801106,22.0339435 3.01108212,20.1014799 C1.0032349,18.169893 0,15.3413414 0,11.6158251 C0,7.89118551 1.14097882,5.02405477 3.42385474,3.01399446 C5.70627152,1.00481095 8.88769696,0 12.9667536,0 C15.8483565,0 18.0499635,0.533093421 19.5720338,1.59971866 C21.093645,2.6663439 21.8544506,4.00389985 21.8544506,5.6110713 C21.8544506,7.21868114 21.4903475,8.39271419 20.7616821,9.13492402 C20.0334759,9.87669546 19.0293228,10.2480196 17.7506,10.2480196 C16.4714181,10.2480196 15.4438485,9.92316578 14.6665136,9.27389657 C13.8896379,8.62506576 13.5012,7.66716352 13.5012,6.39887465 C13.5012,5.84254607 13.5815507,5.28621749 13.7440885,4.72988891 L15.3465094,4.72988891 C15.5728686,4.11174605 15.6867369,3.55497907 15.6867369,3.06046478 C15.6867369,1.5764835 14.9098612,0.834712067 13.3556506,0.834712067" id="Fill-19" fill="#1F3B2C" mask="url(#mask-6)"></path>
                </g>
                <path d="M253,22 L263.826758,22 L263.826758,38.5922023 C264.305852,37.2023043 265.040208,36.0836999 266.028551,35.2376751 C267.016895,34.3916502 268.513639,33.9682091 270.520906,33.9682091 C275.16319,33.9682091 277.483908,36.4917119 277.483908,41.5387175 L277.483908,55.183976 L280,55.183976 L280,56 L267.286173,56 L267.286173,55.183976 L269.128221,55.183976 L269.128221,40.4509712 C269.128221,38.6372036 269.008023,37.4667406 268.7689,36.9374393 C268.528929,36.4089952 268.094856,36.1441303 267.466258,36.1441303 C266.50722,36.1441303 265.661586,36.7784347 264.927655,38.0479006 C264.193299,39.3173665 263.826758,40.8585547 263.826758,42.6718937 L263.826758,55.183976 L265.758849,55.183976 L265.758849,56 L253,56 L253,55.183976 L255.470647,55.183976 L255.470647,22.816024 L253,22.816024 L253,22 Z" id="Fill-22" fill="#1F3B2C"></path>
                <path d="M301.288425,56 C298.299414,56 296.171411,55.2739598 294.902455,53.8228144 C293.633988,52.3702665 293,50.5698925 293,48.4193548 C293,46.2697522 293.689885,44.4960262 295.072106,43.0963067 C296.452857,41.6998597 298.553402,41 301.373251,41 C304.19212,41 306.333852,41.6330061 307.8009,42.8948107 C309.266967,44.1594203 310,45.9597943 310,48.2982702 C310,50.6367461 309.294425,52.5053763 307.885726,53.9032258 C306.475556,55.3015428 304.276456,56 301.288425,56" id="Fill-24" fill="#E6B0A4"></path>
                <g id="Group-28" transform="translate(272.000000, 0.000000)">
                    <mask id="mask-8" fill="white">
                        <use xlink:href="#path-7"></use>
                    </mask>
                    <g id="Clip-27"></g>
                    <path d="M62.5352904,4.65747045 C62.3585063,4.72808574 59.0192517,5.18664921 52.5192726,6.03316085 C47.2895197,6.73931372 42.9445602,8.0622606 39.4813385,10.0024374 C35.7016515,12.1191524 33.1402468,15.1181226 31.7984339,18.999348 C30.8433634,21.7162929 30.5784056,24.2209561 31.0031238,26.5137734 C31.250185,27.749105 31.921528,28.7019755 33.0167162,29.3719489 C33.5815522,29.7245895 34.1114679,29.9538712 34.6064633,30.0593583 C34.3947589,30.871434 34.4999563,31.7005098 34.9246746,32.5474574 C35.7016515,34.2757883 37.5384598,35.2286588 40.436409,35.4047611 C50.7173846,34.4178907 58.5604862,28.2259762 63.9665866,16.8290177 C66.6868787,11.1135384 68.3647996,5.5039821 69.0003492,-8.7179366e-05 C67.7637337,2.15280727 65.6087141,3.70459998 62.5352904,4.65747045 L62.5352904,4.65747045 Z M35.4013368,30.9594852 C33.0699697,34.0643783 31.4618894,37.8392449 30.5784056,42.2849567 C30.1549968,44.5075946 29.9432925,46.4124637 29.9432925,48 L35.4013368,30.9594852 Z M22.893755,35.5638634 C25.5088496,38.8448589 26.8336389,42.760956 26.8685592,47.3121548 L22.893755,35.5638634 Z M4.3995225,17.8346316 C4.53964024,17.8703752 6.81819044,18.1702722 11.2360461,18.7347586 C14.8040287,19.2290656 17.7539219,20.1283208 20.0857256,21.4333959 C22.6641539,22.8805733 24.4136614,24.9258013 25.3320656,27.5721309 C25.9684882,29.4076925 26.1452723,31.1177158 25.8619813,32.7056879 C25.6153566,34.0469425 24.8021499,34.8407106 23.4241072,35.0869923 C23.5655344,35.6519146 23.4952573,36.2342728 23.2124028,36.8336309 C22.6820506,37.9979113 21.4275385,38.633013 19.4506124,38.7385 C12.4543284,38.0693984 7.11937811,33.8529684 3.44488854,26.0909535 C1.57185043,22.2097281 0.424718265,18.3995539 0,14.6595591 C0.848127019,16.1067366 2.31347051,17.1650941 4.3995225,17.8346316 L4.3995225,17.8346316 Z" id="Fill-26" fill="#588068" mask="url(#mask-8)"></path>
                </g>
                <path d="M132.177036,39.7223376 C133.181895,38.8649282 134.086355,37.9917463 135.09296,37.2600786 C136.298179,36.384268 137.656615,35.8760437 139.197515,36.1078115 C141.38795,36.4368429 142.9677,38.2221998 142.999129,40.4373566 C143.02663,42.355027 142.40023,44.1075245 141.49446,45.7465478 C139.435853,49.470605 136.444848,52.1891668 132.543272,53.8890894 C132.177909,54.0485666 131.87584,54.0367373 131.515715,53.8492201 C129.185158,52.6369299 126.911785,51.323433 125.122508,49.3623883 C123.229777,47.2874313 121.753918,44.9417133 121.145852,42.1429748 C120.805806,40.5766802 121.043707,39.1010773 122.03547,37.8024766 C123.416606,35.9938992 125.508824,35.5272967 127.852913,36.4889797 C129.408654,37.1268888 130.697248,38.138518 131.835681,39.3591325 C131.964016,39.4967036 132.093225,39.6333984 132.177036,39.7223376" id="Fill-29" fill="#E6B0A4"></path>
            </g>
        </g>
    </g>
</svg>